<svg id="Layer_1" data-name="Layer 1" xmlns="http://www.w3.org/2000/svg" viewBox="0 0 775.77 156.04"><defs><style>.cls-1{fill:#b2b2b2;}.cls-2{fill:#fdc509;}.cls-3{fill:#fff;}.cls-4{fill:#0e3b1e;}.cls-5{fill:#36b18c;}.cls-6{fill:#9d9d9c;}.cls-7{fill:#ededed;}.cls-8{fill:none;}</style></defs><path class="cls-1" d="M130.08,9.57A9.57,9.57,0,0,0,120.51,0H14.5A9.57,9.57,0,0,0,4.93,9.57V143a9.57,9.57,0,0,0,9.57,9.57H68.77c.71.61,1.49,1.24,2.35,1.87s1.63,1.16,2.4,1.64a2.77,2.77,0,0,0,1.57-.93c1.47-1.89-.7-5.52-1.51-6.22l-.62-.54L72,147.5a43.74,43.74,0,0,1-6.27-7.45,36.11,36.11,0,0,1-4.36-9.8h0a45.31,45.31,0,0,1-1.78-11.88A40.42,40.42,0,0,1,100,78a43.78,43.78,0,0,1,11.9,1.78,40.29,40.29,0,0,1,13.2,7V94.6a5.9,5.9,0,0,0,2.76-1.38,7.78,7.78,0,0,0,2.17-5.33c0-.08,0-.85,0-2.39V9.57Z" transform="translate(0)"/><path class="cls-2" d="M54.69,121.88a40.41,40.41,0,0,1,70.45-27V13.08a9.57,9.57,0,0,0-9.57-9.57H9.57A9.57,9.57,0,0,0,0,13.08v133.4A9.56,9.56,0,0,0,9.57,156h64A40.38,40.38,0,0,1,54.69,121.88Z" transform="translate(0)"/><rect class="cls-3" x="19.07" y="27.62" width="13.82" height="13.82" rx="5.3"/><rect class="cls-3" x="19.07" y="53.98" width="13.82" height="13.82" rx="5.3"/><rect class="cls-3" x="37.23" y="29.23" width="47.09" height="10.61" rx="5.3"/><rect class="cls-3" x="37.23" y="55.59" width="47.09" height="10.61" rx="5.3"/><rect class="cls-4" x="84.29" y="114.82" width="10.13" height="33.75" rx="4.74" transform="translate(-61.88 82.13) rotate(-37.7)"/><rect class="cls-4" x="99.88" y="95.63" width="10.13" height="52.51" rx="4.74" transform="translate(53.51 -30.51) rotate(22.08)"/><rect class="cls-5" x="81.92" y="114.82" width="10.13" height="33.75" rx="4.74" transform="translate(-62.37 80.68) rotate(-37.7)"/><rect class="cls-5" x="97.51" y="95.63" width="10.13" height="52.51" rx="4.74" transform="translate(53.34 -29.62) rotate(22.08)"/><path class="cls-6" d="M148.87,124.7a5.06,5.06,0,0,1-5.59-5.6V59.8a5.06,5.06,0,0,1,5.59-5.6h19.3q17.42,0,26.86,9t9.45,26.15a44,44,0,0,1-2.41,15.1,28.43,28.43,0,0,1-7,11,31,31,0,0,1-11.36,6.8,46.64,46.64,0,0,1-15.5,2.35Zm4.8-8.7h13.9A35.68,35.68,0,0,0,179,114.35a20.7,20.7,0,0,0,8.14-4.95,20.11,20.11,0,0,0,4.9-8.3,38.35,38.35,0,0,0,1.6-11.7q0-13.29-6.55-19.9t-19.55-6.6h-13.9Z" transform="translate(0)"/><path class="cls-6" d="M232.87,125.6a20.3,20.3,0,0,1-9.15-2,16,16,0,0,1-6.35-5.4,13.43,13.43,0,0,1-2.3-7.7q0-5.4,2.75-8.55t9.1-4.5a86.18,86.18,0,0,1,17.15-1.35h4.7v6.2h-4.6a73.62,73.62,0,0,0-11.4.7q-4.2.7-6,2.35a6,6,0,0,0-1.75,4.55,7.89,7.89,0,0,0,2.6,6.15,10.36,10.36,0,0,0,7.2,2.35,12,12,0,0,0,6.5-1.75,12.64,12.64,0,0,0,4.45-4.75,14.08,14.08,0,0,0,1.65-6.9V93.5q0-5.7-2.4-8.2c-1.6-1.66-4.23-2.5-7.9-2.5a29.63,29.63,0,0,0-6.65.8,31.8,31.8,0,0,0-7.15,2.7,4.36,4.36,0,0,1-2.9.5,3.14,3.14,0,0,1-1.9-1.35,4.49,4.49,0,0,1-.75-2.3,4.75,4.75,0,0,1,.6-2.45,4.07,4.07,0,0,1,2.25-1.8,38.77,38.77,0,0,1,8.7-3,39.67,39.67,0,0,1,8.1-.9,25.41,25.41,0,0,1,11.05,2.1A13.54,13.54,0,0,1,255,83.5a25.37,25.37,0,0,1,2.1,11.1v25.7a5.45,5.45,0,0,1-1.2,3.75,4.43,4.43,0,0,1-3.5,1.35,4.65,4.65,0,0,1-3.5-1.35,5.21,5.21,0,0,1-1.3-3.75v-6.5h.9a14.73,14.73,0,0,1-2.95,6.35,13.87,13.87,0,0,1-5.35,4A17.9,17.9,0,0,1,232.87,125.6Z" transform="translate(0)"/><path class="cls-6" d="M276,65a6.67,6.67,0,0,1-4.65-1.5,5.39,5.39,0,0,1-1.65-4.2,5.37,5.37,0,0,1,1.65-4.25,8.18,8.18,0,0,1,9.3,0,5.37,5.37,0,0,1,1.65,4.25,5.39,5.39,0,0,1-1.65,4.2A6.67,6.67,0,0,1,276,65Zm0,60.3a4.71,4.71,0,0,1-3.7-1.45,5.86,5.86,0,0,1-1.3-4v-39a5.71,5.71,0,0,1,1.3-4,4.82,4.82,0,0,1,3.7-1.4,5,5,0,0,1,3.75,1.4,5.55,5.55,0,0,1,1.35,4v39a5.82,5.82,0,0,1-1.3,4A4.81,4.81,0,0,1,276,125.3Z" transform="translate(0)"/><path class="cls-6" d="M311,125.6q-7.8,0-11.75-4.55t-4-13.15V58.6a5.19,5.19,0,0,1,1.3-3.8,5,5,0,0,1,3.7-1.3A5.21,5.21,0,0,1,304,54.8a5.05,5.05,0,0,1,1.35,3.8v48.7c0,3.34.69,5.82,2.05,7.45a7.3,7.3,0,0,0,5.95,2.45c.6,0,1.14,0,1.6,0s.94-.08,1.4-.15a1.71,1.71,0,0,1,1.7.65,6.1,6.1,0,0,1,.5,3,5.15,5.15,0,0,1-.9,3.25,4.29,4.29,0,0,1-2.9,1.45c-.6.07-1.23.12-1.9.15S311.57,125.6,311,125.6Z" transform="translate(0)"/><path class="cls-6" d="M336.17,143.4a4.5,4.5,0,0,1-2.95-.94,3.6,3.6,0,0,1-1.3-2.5,7.35,7.35,0,0,1,.55-3.35l6.8-15.31v4.3l-18.7-43.5a7.06,7.06,0,0,1-.5-3.4,3.66,3.66,0,0,1,1.5-2.55,5.85,5.85,0,0,1,3.5-1,4.59,4.59,0,0,1,3,.9,7.75,7.75,0,0,1,2,3.1l15.1,37.3h-2.8l15.3-37.3a6.84,6.84,0,0,1,2.1-3.15,5.67,5.67,0,0,1,3.3-.85,3.88,3.88,0,0,1,4.15,3.45,5.8,5.8,0,0,1-.55,3.35l-25,57.5a6.73,6.73,0,0,1-2.25,3.11A6,6,0,0,1,336.17,143.4Z" transform="translate(0)"/><path class="cls-6" d="M400.17,125.4a5.08,5.08,0,0,1-3.85-1.4,5.38,5.38,0,0,1-1.35-3.9V62.9h-21.2a4.56,4.56,0,0,1-3.3-1.15,4.28,4.28,0,0,1-1.2-3.25,4.13,4.13,0,0,1,1.2-3.2,4.71,4.71,0,0,1,3.3-1.1h52.7a4.86,4.86,0,0,1,3.4,1.1,4.13,4.13,0,0,1,1.2,3.2,4.28,4.28,0,0,1-1.2,3.25,4.7,4.7,0,0,1-3.4,1.15h-21.2v57.2A5.61,5.61,0,0,1,404,124,4.87,4.87,0,0,1,400.17,125.4Z" transform="translate(0)"/><path class="cls-6" d="M451.27,125.6a25,25,0,0,1-12.75-3.1,21.49,21.49,0,0,1-8.35-8.8,28.36,28.36,0,0,1-3-13.4,30.27,30.27,0,0,1,1.7-10.5,23.42,23.42,0,0,1,4.85-8,20.79,20.79,0,0,1,7.6-5.1A27.16,27.16,0,0,1,451.27,75a24.84,24.84,0,0,1,12.65,3.1,21.61,21.61,0,0,1,8.35,8.75,28.32,28.32,0,0,1,3,13.45,30.51,30.51,0,0,1-1.7,10.5,22.39,22.39,0,0,1-4.85,8,20.84,20.84,0,0,1-7.6,5A26.61,26.61,0,0,1,451.27,125.6Zm0-7.8a12.9,12.9,0,0,0,7.2-2,13.15,13.15,0,0,0,4.85-5.9,23.36,23.36,0,0,0,1.75-9.6q0-8.6-3.8-13a12.57,12.57,0,0,0-10-4.4,13.43,13.43,0,0,0-7.3,1.95,13,13,0,0,0-4.85,5.85,23.53,23.53,0,0,0-1.75,9.6q0,8.51,3.8,13A12.57,12.57,0,0,0,451.27,117.8Z" transform="translate(0)"/><path class="cls-6" d="M493.27,124.7a5.06,5.06,0,0,1-5.6-5.6V59.8a5.06,5.06,0,0,1,5.6-5.6h19.3q17.4,0,26.85,9t9.45,26.15a44,44,0,0,1-2.4,15.1,28.45,28.45,0,0,1-7.05,11,30.83,30.83,0,0,1-11.35,6.8,46.68,46.68,0,0,1-15.5,2.35Zm4.8-8.7H512a35.61,35.61,0,0,0,11.45-1.65,20.81,20.81,0,0,0,8.15-4.95,20.22,20.22,0,0,0,4.9-8.3,38.35,38.35,0,0,0,1.6-11.7q0-13.29-6.55-19.9T512,62.9h-13.9Z" transform="translate(0)"/><path class="cls-6" d="M582.87,125.6a25,25,0,0,1-12.75-3.1,21.43,21.43,0,0,1-8.35-8.8,28.36,28.36,0,0,1-3-13.4,30.27,30.27,0,0,1,1.7-10.5,23.26,23.26,0,0,1,4.85-8,20.71,20.71,0,0,1,7.6-5.1,27.12,27.12,0,0,1,10-1.75,24.86,24.86,0,0,1,12.65,3.1,21.61,21.61,0,0,1,8.35,8.75,28.32,28.32,0,0,1,3,13.45,30.75,30.75,0,0,1-1.7,10.5,22.39,22.39,0,0,1-4.85,8,20.84,20.84,0,0,1-7.6,5A26.64,26.64,0,0,1,582.87,125.6Zm0-7.8a13,13,0,0,0,7.2-2,13.21,13.21,0,0,0,4.85-5.9,23.36,23.36,0,0,0,1.75-9.6q0-8.6-3.8-13a12.58,12.58,0,0,0-10-4.4,13.43,13.43,0,0,0-7.3,1.95,12.91,12.91,0,0,0-4.85,5.85,23.36,23.36,0,0,0-1.75,9.6q0,8.51,3.8,13A12.55,12.55,0,0,0,582.87,117.8Z" transform="translate(0)"/><path class="cls-6" d="M624.57,124.7a4.86,4.86,0,0,1-5.3-5.3V59.1a5.36,5.36,0,0,1,1.35-4,6.16,6.16,0,0,1,7.7,0,5.36,5.36,0,0,1,1.35,4v56.7h31a4.74,4.74,0,0,1,3.4,1.15,4.29,4.29,0,0,1,1.2,3.25,4.46,4.46,0,0,1-1.2,3.3,4.59,4.59,0,0,1-3.4,1.2Z" transform="translate(0)"/><path class="cls-6" d="M678.37,65a6.67,6.67,0,0,1-4.65-1.5,5.39,5.39,0,0,1-1.65-4.2,5.37,5.37,0,0,1,1.65-4.25,8.18,8.18,0,0,1,9.3,0,5.37,5.37,0,0,1,1.65,4.25A5.39,5.39,0,0,1,683,63.5,6.67,6.67,0,0,1,678.37,65Zm0,60.3a4.69,4.69,0,0,1-3.7-1.45,5.82,5.82,0,0,1-1.3-4v-39a5.67,5.67,0,0,1,1.3-4,4.8,4.8,0,0,1,3.7-1.4,5,5,0,0,1,3.75,1.4,5.55,5.55,0,0,1,1.35,4v39a5.86,5.86,0,0,1-1.3,4A4.84,4.84,0,0,1,678.37,125.3Z" transform="translate(0)"/><path class="cls-6" d="M714.77,125.6a42.73,42.73,0,0,1-9-1,26.86,26.86,0,0,1-8.55-3.4,4.94,4.94,0,0,1-1.8-2A4,4,0,0,1,695,117a3.7,3.7,0,0,1,.9-2,3.25,3.25,0,0,1,1.9-1,3.84,3.84,0,0,1,2.45.5,28.54,28.54,0,0,0,7.5,3,30.6,30.6,0,0,0,7.1.85q5.29,0,8-1.9a5.92,5.92,0,0,0,2.7-5.1,4.92,4.92,0,0,0-1.8-4,13.4,13.4,0,0,0-5.4-2.25l-9.5-1.9q-6.2-1.29-9.4-4.6a11.54,11.54,0,0,1-3.2-8.4,13.14,13.14,0,0,1,2.5-8,16,16,0,0,1,7-5.25A27.26,27.26,0,0,1,716.17,75a30.59,30.59,0,0,1,8.3,1.1,25.62,25.62,0,0,1,7.2,3.3,3.45,3.45,0,0,1,1.7,1.85,4,4,0,0,1-.9,4.2,3.18,3.18,0,0,1-2,1A4.41,4.41,0,0,1,728,85.9a22.21,22.21,0,0,0-6-2.7,22.45,22.45,0,0,0-5.85-.8c-3.54,0-6.18.65-7.95,1.95a6.18,6.18,0,0,0-2.65,5.25,5.52,5.52,0,0,0,1.6,4.1,9.64,9.64,0,0,0,5,2.3l9.5,1.9q6.5,1.3,9.85,4.4a10.91,10.91,0,0,1,3.35,8.4,12.77,12.77,0,0,1-5.5,10.9Q723.87,125.6,714.77,125.6Z" transform="translate(0)"/><path class="cls-6" d="M766.37,125.6a22,22,0,0,1-10.1-2.1,13.33,13.33,0,0,1-6.1-6.2,22.54,22.54,0,0,1-2-10V83.7h-6a4.29,4.29,0,0,1-3.1-1,4.31,4.31,0,0,1,0-5.75,4.46,4.46,0,0,1,3.1-1h6V65.6a5.05,5.05,0,0,1,1.35-3.8,5.21,5.21,0,0,1,3.75-1.3,5,5,0,0,1,3.7,1.3,5.19,5.19,0,0,1,1.3,3.8V75.9H770a4.49,4.49,0,0,1,3.1,1,4.31,4.31,0,0,1,0,5.75,4.33,4.33,0,0,1-3.1,1h-11.7v22.8c0,3.54.75,6.2,2.25,8s4,2.7,7.35,2.7a12.33,12.33,0,0,0,3.15-.35,17.71,17.71,0,0,1,2.25-.45,2.36,2.36,0,0,1,1.8.75,4.31,4.31,0,0,1,.7,2.85,7.21,7.21,0,0,1-.55,2.8,2.85,2.85,0,0,1-2,1.7,21.88,21.88,0,0,1-3.25.75A21.26,21.26,0,0,1,766.37,125.6Z" transform="translate(0)"/><path class="cls-7" d="M146.87,123.7a5.06,5.06,0,0,1-5.59-5.6V58.8a5.06,5.06,0,0,1,5.59-5.6h19.3q17.42,0,26.86,9t9.45,26.15a44,44,0,0,1-2.41,15.1,28.43,28.43,0,0,1-7,11,31,31,0,0,1-11.36,6.8,46.64,46.64,0,0,1-15.5,2.35Zm4.8-8.7h13.9A35.68,35.68,0,0,0,177,113.35a20.7,20.7,0,0,0,8.14-4.95,20.11,20.11,0,0,0,4.9-8.3,38.35,38.35,0,0,0,1.6-11.7q0-13.29-6.55-19.9t-19.55-6.6h-13.9Z" transform="translate(0)"/><path class="cls-7" d="M230.87,124.6a20.3,20.3,0,0,1-9.15-2,16,16,0,0,1-6.35-5.4,13.43,13.43,0,0,1-2.3-7.7q0-5.4,2.75-8.55t9.1-4.5a86.18,86.18,0,0,1,17.15-1.35h4.7v6.2h-4.6a73.62,73.62,0,0,0-11.4.7q-4.2.7-6,2.35a6,6,0,0,0-1.75,4.55,7.89,7.89,0,0,0,2.6,6.15,10.36,10.36,0,0,0,7.2,2.35,12,12,0,0,0,6.5-1.75,12.64,12.64,0,0,0,4.45-4.75,14.08,14.08,0,0,0,1.65-6.9V92.5q0-5.7-2.4-8.2c-1.6-1.66-4.23-2.5-7.9-2.5a29.63,29.63,0,0,0-6.65.8,31.8,31.8,0,0,0-7.15,2.7,4.36,4.36,0,0,1-2.9.5,3.14,3.14,0,0,1-1.9-1.35,4.49,4.49,0,0,1-.75-2.3,4.75,4.75,0,0,1,.6-2.45,4.07,4.07,0,0,1,2.25-1.8,38.77,38.77,0,0,1,8.7-3,39.67,39.67,0,0,1,8.1-.9,25.41,25.41,0,0,1,11.05,2.1A13.54,13.54,0,0,1,253,82.5a25.37,25.37,0,0,1,2.1,11.1v25.7a5.45,5.45,0,0,1-1.2,3.75,4.43,4.43,0,0,1-3.5,1.35,4.65,4.65,0,0,1-3.5-1.35,5.21,5.21,0,0,1-1.3-3.75v-6.5h.9a14.73,14.73,0,0,1-2.95,6.35,13.87,13.87,0,0,1-5.35,4A17.9,17.9,0,0,1,230.87,124.6Z" transform="translate(0)"/><path class="cls-7" d="M274,64a6.67,6.67,0,0,1-4.65-1.5,5.39,5.39,0,0,1-1.65-4.2,5.37,5.37,0,0,1,1.65-4.25,8.18,8.18,0,0,1,9.3,0,5.37,5.37,0,0,1,1.65,4.25,5.39,5.39,0,0,1-1.65,4.2A6.67,6.67,0,0,1,274,64Zm0,60.3a4.71,4.71,0,0,1-3.7-1.45,5.86,5.86,0,0,1-1.3-4v-39a5.71,5.71,0,0,1,1.3-4,4.82,4.82,0,0,1,3.7-1.4,5,5,0,0,1,3.75,1.4,5.55,5.55,0,0,1,1.35,4v39a5.82,5.82,0,0,1-1.3,4A4.81,4.81,0,0,1,274,124.3Z" transform="translate(0)"/><path class="cls-7" d="M309,124.6q-7.8,0-11.75-4.55t-4-13.15V57.6a5.19,5.19,0,0,1,1.3-3.8,5,5,0,0,1,3.7-1.3A5.21,5.21,0,0,1,302,53.8a5.05,5.05,0,0,1,1.35,3.8v48.7c0,3.34.69,5.82,2.05,7.45a7.3,7.3,0,0,0,5.95,2.45c.6,0,1.14,0,1.6,0s.94-.08,1.4-.15a1.71,1.71,0,0,1,1.7.65,6.1,6.1,0,0,1,.5,3,5.15,5.15,0,0,1-.9,3.25,4.29,4.29,0,0,1-2.9,1.45c-.6.07-1.23.12-1.9.15S309.57,124.6,309,124.6Z" transform="translate(0)"/><path class="cls-7" d="M334.17,142.4a4.5,4.5,0,0,1-2.95-.94,3.6,3.6,0,0,1-1.3-2.5,7.35,7.35,0,0,1,.55-3.35l6.8-15.31v4.3l-18.7-43.5a7.06,7.06,0,0,1-.5-3.4,3.66,3.66,0,0,1,1.5-2.55,5.85,5.85,0,0,1,3.5-1,4.59,4.59,0,0,1,3,.9,7.75,7.75,0,0,1,2,3.1l15.1,37.3h-2.8l15.3-37.3a6.84,6.84,0,0,1,2.1-3.15,5.67,5.67,0,0,1,3.3-.85,3.88,3.88,0,0,1,4.15,3.45,5.8,5.8,0,0,1-.55,3.35l-25,57.5a6.73,6.73,0,0,1-2.25,3.11A6,6,0,0,1,334.17,142.4Z" transform="translate(0)"/><path class="cls-7" d="M398.17,124.4a5.08,5.08,0,0,1-3.85-1.4,5.38,5.38,0,0,1-1.35-3.9V61.9h-21.2a4.56,4.56,0,0,1-3.3-1.15,4.28,4.28,0,0,1-1.2-3.25,4.13,4.13,0,0,1,1.2-3.2,4.71,4.71,0,0,1,3.3-1.1h52.7a4.86,4.86,0,0,1,3.4,1.1,4.13,4.13,0,0,1,1.2,3.2,4.28,4.28,0,0,1-1.2,3.25,4.7,4.7,0,0,1-3.4,1.15h-21.2v57.2A5.61,5.61,0,0,1,402,123,4.87,4.87,0,0,1,398.17,124.4Z" transform="translate(0)"/><path class="cls-7" d="M449.27,124.6a25,25,0,0,1-12.75-3.1,21.49,21.49,0,0,1-8.35-8.8,28.36,28.36,0,0,1-3-13.4,30.27,30.27,0,0,1,1.7-10.5,23.42,23.42,0,0,1,4.85-8,20.79,20.79,0,0,1,7.6-5.1A27.16,27.16,0,0,1,449.27,74a24.84,24.84,0,0,1,12.65,3.1,21.61,21.61,0,0,1,8.35,8.75,28.32,28.32,0,0,1,3,13.45,30.51,30.51,0,0,1-1.7,10.5,22.39,22.39,0,0,1-4.85,8,20.84,20.84,0,0,1-7.6,5A26.61,26.61,0,0,1,449.27,124.6Zm0-7.8a12.9,12.9,0,0,0,7.2-2,13.15,13.15,0,0,0,4.85-5.9,23.36,23.36,0,0,0,1.75-9.6q0-8.6-3.8-13a12.57,12.57,0,0,0-10-4.4,13.43,13.43,0,0,0-7.3,1.95,13,13,0,0,0-4.85,5.85,23.53,23.53,0,0,0-1.75,9.6q0,8.51,3.8,13A12.57,12.57,0,0,0,449.27,116.8Z" transform="translate(0)"/><path class="cls-7" d="M491.27,123.7a5.06,5.06,0,0,1-5.6-5.6V58.8a5.06,5.06,0,0,1,5.6-5.6h19.3q17.4,0,26.85,9t9.45,26.15a44,44,0,0,1-2.4,15.1,28.45,28.45,0,0,1-7.05,11,30.83,30.83,0,0,1-11.35,6.8,46.68,46.68,0,0,1-15.5,2.35Zm4.8-8.7H510a35.61,35.61,0,0,0,11.45-1.65,20.81,20.81,0,0,0,8.15-4.95,20.22,20.22,0,0,0,4.9-8.3,38.35,38.35,0,0,0,1.6-11.7q0-13.29-6.55-19.9T510,61.9h-13.9Z" transform="translate(0)"/><path class="cls-7" d="M580.87,124.6a25,25,0,0,1-12.75-3.1,21.43,21.43,0,0,1-8.35-8.8,28.36,28.36,0,0,1-3-13.4,30.27,30.27,0,0,1,1.7-10.5,23.26,23.26,0,0,1,4.85-8,20.71,20.71,0,0,1,7.6-5.1,27.12,27.12,0,0,1,10-1.75,24.86,24.86,0,0,1,12.65,3.1,21.61,21.61,0,0,1,8.35,8.75,28.32,28.32,0,0,1,3,13.45,30.75,30.75,0,0,1-1.7,10.5,22.39,22.39,0,0,1-4.85,8,20.84,20.84,0,0,1-7.6,5A26.64,26.64,0,0,1,580.87,124.6Zm0-7.8a13,13,0,0,0,7.2-2,13.21,13.21,0,0,0,4.85-5.9,23.36,23.36,0,0,0,1.75-9.6q0-8.6-3.8-13a12.58,12.58,0,0,0-10-4.4,13.43,13.43,0,0,0-7.3,1.95,12.91,12.91,0,0,0-4.85,5.85A23.36,23.36,0,0,0,567,99.3q0,8.51,3.8,13A12.55,12.55,0,0,0,580.87,116.8Z" transform="translate(0)"/><path class="cls-7" d="M622.57,123.7a4.86,4.86,0,0,1-5.3-5.3V58.1a5.36,5.36,0,0,1,1.35-4,6.16,6.16,0,0,1,7.7,0,5.36,5.36,0,0,1,1.35,4v56.7h31a4.74,4.74,0,0,1,3.4,1.15,4.29,4.29,0,0,1,1.2,3.25,4.46,4.46,0,0,1-1.2,3.3,4.59,4.59,0,0,1-3.4,1.2Z" transform="translate(0)"/><path class="cls-7" d="M676.37,64a6.67,6.67,0,0,1-4.65-1.5,5.39,5.39,0,0,1-1.65-4.2,5.37,5.37,0,0,1,1.65-4.25,8.18,8.18,0,0,1,9.3,0,5.37,5.37,0,0,1,1.65,4.25A5.39,5.39,0,0,1,681,62.5,6.67,6.67,0,0,1,676.37,64Zm0,60.3a4.69,4.69,0,0,1-3.7-1.45,5.82,5.82,0,0,1-1.3-4v-39a5.67,5.67,0,0,1,1.3-4,4.8,4.8,0,0,1,3.7-1.4,5,5,0,0,1,3.75,1.4,5.55,5.55,0,0,1,1.35,4v39a5.86,5.86,0,0,1-1.3,4A4.84,4.84,0,0,1,676.37,124.3Z" transform="translate(0)"/><path class="cls-7" d="M712.77,124.6a42.73,42.73,0,0,1-9-1,26.86,26.86,0,0,1-8.55-3.4,4.94,4.94,0,0,1-1.8-2A4,4,0,0,1,693,116a3.7,3.7,0,0,1,.9-2,3.25,3.25,0,0,1,1.9-1,3.84,3.84,0,0,1,2.45.5,28.54,28.54,0,0,0,7.5,3,30.6,30.6,0,0,0,7.1.85q5.29,0,8-1.9a5.92,5.92,0,0,0,2.7-5.1,4.92,4.92,0,0,0-1.8-4,13.4,13.4,0,0,0-5.4-2.25l-9.5-1.9q-6.2-1.29-9.4-4.6a11.54,11.54,0,0,1-3.2-8.4,13.14,13.14,0,0,1,2.5-8,16,16,0,0,1,7-5.25A27.26,27.26,0,0,1,714.17,74a30.59,30.59,0,0,1,8.3,1.1,25.62,25.62,0,0,1,7.2,3.3,3.45,3.45,0,0,1,1.7,1.85,4,4,0,0,1-.9,4.2,3.18,3.18,0,0,1-2,1A4.41,4.41,0,0,1,726,84.9a22.21,22.21,0,0,0-6-2.7,22.45,22.45,0,0,0-5.85-.8c-3.54,0-6.18.65-7.95,1.95a6.18,6.18,0,0,0-2.65,5.25,5.52,5.52,0,0,0,1.6,4.1,9.64,9.64,0,0,0,5,2.3l9.5,1.9q6.5,1.3,9.85,4.4a10.91,10.91,0,0,1,3.35,8.4,12.77,12.77,0,0,1-5.5,10.9Q721.87,124.6,712.77,124.6Z" transform="translate(0)"/><path class="cls-7" d="M764.37,124.6a22,22,0,0,1-10.1-2.1,13.33,13.33,0,0,1-6.1-6.2,22.54,22.54,0,0,1-2-10V82.7h-6a4.29,4.29,0,0,1-3.1-1,4.31,4.31,0,0,1,0-5.75,4.46,4.46,0,0,1,3.1-1h6V64.6a5.05,5.05,0,0,1,1.35-3.8,5.21,5.21,0,0,1,3.75-1.3,5,5,0,0,1,3.7,1.3,5.19,5.19,0,0,1,1.3,3.8V74.9H768a4.49,4.49,0,0,1,3.1,1,4.31,4.31,0,0,1,0,5.75,4.33,4.33,0,0,1-3.1,1h-11.7v22.8c0,3.54.75,6.2,2.25,8s4,2.7,7.35,2.7a12.33,12.33,0,0,0,3.15-.35,17.71,17.71,0,0,1,2.25-.45,2.36,2.36,0,0,1,1.8.75,4.31,4.31,0,0,1,.7,2.85,7.21,7.21,0,0,1-.55,2.8,2.85,2.85,0,0,1-2,1.7,21.88,21.88,0,0,1-3.25.75A21.26,21.26,0,0,1,764.37,124.6Z" transform="translate(0)"/><line class="cls-8" x1="151.66" y1="82.64" x2="151.68" y2="82.69"/></svg>