<svg id="Layer_1" data-name="Layer 1" xmlns="http://www.w3.org/2000/svg" viewBox="0 0 775.77 156.5"><defs><style>.cls-1{fill:#c6c6c6;}.cls-2{fill:#fdc506;}.cls-3{fill:#fff;}.cls-4{fill:#0e3b1e;}.cls-5{fill:#36b18c;}.cls-6{fill:#9d9d9c;}.cls-7{fill:#f6f6f6;}</style></defs><path class="cls-1" d="M54.43,118.65c0-23.78,18.85-43.07,42.11-43.07a41.3,41.3,0,0,1,23.89,7.61V9.86A9.76,9.76,0,0,0,110.79,0H14.36A9.76,9.76,0,0,0,4.71,9.86V146.64a9.76,9.76,0,0,0,9.65,9.86H76.42A43.21,43.21,0,0,1,54.43,118.65Z"/><path class="cls-2" d="M49.71,119.43a42.1,42.1,0,0,1,66-34.67V13.14a9.64,9.64,0,0,0-9.64-9.64H9.64A9.65,9.65,0,0,0,0,13.14V146.86a9.65,9.65,0,0,0,9.64,9.64h62.2A42.12,42.12,0,0,1,49.71,119.43Z"/><path class="cls-1" d="M115.71,84.76l4.72-1.57L115.71,80Z"/><rect class="cls-3" x="19.07" y="27.61" width="13.82" height="13.82" rx="5.3"/><rect class="cls-3" x="19.07" y="53.96" width="13.82" height="13.82" rx="5.3"/><rect class="cls-3" x="37.23" y="29.21" width="47.09" height="10.61" rx="5.3"/><rect class="cls-3" x="37.23" y="55.57" width="47.09" height="10.61" rx="5.3"/><rect class="cls-4" x="81.94" y="111.26" width="10.13" height="33.75" rx="4.74" transform="translate(-60.19 79.94) rotate(-37.7)"/><rect class="cls-4" x="97.52" y="92.07" width="10.13" height="52.51" rx="4.74" transform="translate(52 -29.89) rotate(22.08)"/><rect class="cls-5" x="79.57" y="111.26" width="10.13" height="33.75" rx="4.74" transform="translate(-60.69 78.5) rotate(-37.7)"/><rect class="cls-5" x="95.16" y="92.07" width="10.13" height="52.51" rx="4.74" transform="translate(51.83 -29) rotate(22.08)"/><path class="cls-6" d="M148.87,124.69a5.06,5.06,0,0,1-5.59-5.6V59.79a5.06,5.06,0,0,1,5.59-5.6h19.3q17.42,0,26.86,9.05t9.45,26.15a44,44,0,0,1-2.41,15.1,28.51,28.51,0,0,1-7,11.05,31.09,31.09,0,0,1-11.36,6.8,46.64,46.64,0,0,1-15.5,2.35Zm4.8-8.7h13.9A35.68,35.68,0,0,0,179,114.34a20.7,20.7,0,0,0,8.14-5,20.17,20.17,0,0,0,4.9-8.3,38.35,38.35,0,0,0,1.6-11.7q0-13.31-6.55-19.9t-19.55-6.6h-13.9Z"/><path class="cls-6" d="M232.87,125.59a20.43,20.43,0,0,1-9.15-2,16,16,0,0,1-6.35-5.4,13.45,13.45,0,0,1-2.3-7.7q0-5.4,2.75-8.55t9.1-4.5a86.18,86.18,0,0,1,17.15-1.35h4.7v6.2h-4.6a72.38,72.38,0,0,0-11.4.7q-4.2.7-6,2.35a6,6,0,0,0-1.75,4.55,7.92,7.92,0,0,0,2.6,6.15,10.36,10.36,0,0,0,7.2,2.35,12,12,0,0,0,6.5-1.75,12.71,12.71,0,0,0,4.45-4.75,14.08,14.08,0,0,0,1.65-6.9V93.49q0-5.7-2.4-8.2t-7.9-2.5a29.63,29.63,0,0,0-6.65.8,30.86,30.86,0,0,0-7.15,2.7,4.42,4.42,0,0,1-2.9.5,3.14,3.14,0,0,1-1.9-1.35,4.52,4.52,0,0,1-.75-2.3,4.75,4.75,0,0,1,.6-2.45,4.07,4.07,0,0,1,2.25-1.8,38.77,38.77,0,0,1,8.7-3,39.67,39.67,0,0,1,8.1-.9,25.41,25.41,0,0,1,11.05,2.1,13.5,13.5,0,0,1,6.45,6.4,25.37,25.37,0,0,1,2.1,11.1v25.7a5.45,5.45,0,0,1-1.2,3.75,4.43,4.43,0,0,1-3.5,1.35,4.65,4.65,0,0,1-3.5-1.35,5.21,5.21,0,0,1-1.3-3.75v-6.5h.9a14.79,14.79,0,0,1-2.95,6.35,13.87,13.87,0,0,1-5.35,4A18.07,18.07,0,0,1,232.87,125.59Z"/><path class="cls-6" d="M276,65a6.67,6.67,0,0,1-4.65-1.5,5.39,5.39,0,0,1-1.65-4.2A5.36,5.36,0,0,1,271.32,55a8.18,8.18,0,0,1,9.3,0,5.36,5.36,0,0,1,1.65,4.25,5.39,5.39,0,0,1-1.65,4.2A6.67,6.67,0,0,1,276,65Zm0,60.3a4.71,4.71,0,0,1-3.7-1.45,5.9,5.9,0,0,1-1.3-4v-39a5.7,5.7,0,0,1,1.3-4,4.82,4.82,0,0,1,3.7-1.4,5,5,0,0,1,3.75,1.4,5.53,5.53,0,0,1,1.35,4v39a5.85,5.85,0,0,1-1.3,4A4.81,4.81,0,0,1,276,125.29Z"/><path class="cls-6" d="M311,125.59q-7.8,0-11.75-4.55t-4-13.15V58.59a5.18,5.18,0,0,1,1.3-3.8,5,5,0,0,1,3.7-1.3,5.17,5.17,0,0,1,3.75,1.3,5,5,0,0,1,1.35,3.8v48.7c0,3.33.69,5.82,2.05,7.45a7.33,7.33,0,0,0,5.95,2.45c.6,0,1.14,0,1.6,0s.94-.08,1.4-.15a1.7,1.7,0,0,1,1.7.65,6.1,6.1,0,0,1,.5,3,5.17,5.17,0,0,1-.9,3.25,4.29,4.29,0,0,1-2.9,1.45c-.6.07-1.23.11-1.9.15S311.57,125.59,311,125.59Z"/><path class="cls-6" d="M336.17,143.39a4.5,4.5,0,0,1-2.95-.95,3.58,3.58,0,0,1-1.3-2.5,7.39,7.39,0,0,1,.55-3.35l6.8-15.3v4.3l-18.7-43.5a7.06,7.06,0,0,1-.5-3.4,3.62,3.62,0,0,1,1.5-2.55,5.85,5.85,0,0,1,3.5-1,4.59,4.59,0,0,1,3,.9,7.68,7.68,0,0,1,2,3.1l15.1,37.3h-2.8l15.3-37.3a6.84,6.84,0,0,1,2.1-3.15,5.6,5.6,0,0,1,3.3-.85,3.88,3.88,0,0,1,4.15,3.45,5.81,5.81,0,0,1-.55,3.35l-25,57.5a6.69,6.69,0,0,1-2.25,3.1A6,6,0,0,1,336.17,143.39Z"/><path class="cls-6" d="M400.17,125.39a5.12,5.12,0,0,1-3.85-1.4,5.38,5.38,0,0,1-1.35-3.9V62.89h-21.2a4.56,4.56,0,0,1-3.3-1.15,4.29,4.29,0,0,1-1.2-3.25,4.12,4.12,0,0,1,1.2-3.2,4.71,4.71,0,0,1,3.3-1.1h52.7a4.86,4.86,0,0,1,3.4,1.1,4.12,4.12,0,0,1,1.2,3.2,4.29,4.29,0,0,1-1.2,3.25,4.7,4.7,0,0,1-3.4,1.15h-21.2v57.2A5.61,5.61,0,0,1,404,124,4.9,4.9,0,0,1,400.17,125.39Z"/><path class="cls-6" d="M451.27,125.59a25,25,0,0,1-12.75-3.1,21.55,21.55,0,0,1-8.35-8.8,28.39,28.39,0,0,1-3-13.4,30.27,30.27,0,0,1,1.7-10.5,23.23,23.23,0,0,1,4.85-8,20.79,20.79,0,0,1,7.6-5.1A27,27,0,0,1,451.27,75a24.74,24.74,0,0,1,12.65,3.1,21.55,21.55,0,0,1,8.35,8.75,28.32,28.32,0,0,1,3,13.45,30.51,30.51,0,0,1-1.7,10.5,22.48,22.48,0,0,1-4.85,8,21,21,0,0,1-7.6,5A26.81,26.81,0,0,1,451.27,125.59Zm0-7.8a13,13,0,0,0,7.2-2,13.15,13.15,0,0,0,4.85-5.9,23.36,23.36,0,0,0,1.75-9.6q0-8.6-3.8-13a12.57,12.57,0,0,0-10-4.4,13.43,13.43,0,0,0-7.3,2,13,13,0,0,0-4.85,5.85,23.53,23.53,0,0,0-1.75,9.6q0,8.5,3.8,13A12.57,12.57,0,0,0,451.27,117.79Z"/><path class="cls-6" d="M493.27,124.69a5.06,5.06,0,0,1-5.6-5.6V59.79a5.06,5.06,0,0,1,5.6-5.6h19.3q17.4,0,26.85,9.05t9.45,26.15a44,44,0,0,1-2.4,15.1,28.53,28.53,0,0,1-7.05,11.05,31,31,0,0,1-11.35,6.8,46.68,46.68,0,0,1-15.5,2.35Zm4.8-8.7H512a35.61,35.61,0,0,0,11.45-1.65,20.81,20.81,0,0,0,8.15-5,20.28,20.28,0,0,0,4.9-8.3,38.35,38.35,0,0,0,1.6-11.7q0-13.31-6.55-19.9T512,62.89h-13.9Z"/><path class="cls-6" d="M582.87,125.59a25,25,0,0,1-12.75-3.1,21.49,21.49,0,0,1-8.35-8.8,28.39,28.39,0,0,1-3-13.4,30.27,30.27,0,0,1,1.7-10.5,23.07,23.07,0,0,1,4.85-8,20.71,20.71,0,0,1,7.6-5.1,26.92,26.92,0,0,1,10-1.75,24.76,24.76,0,0,1,12.65,3.1,21.55,21.55,0,0,1,8.35,8.75,28.32,28.32,0,0,1,3,13.45,30.75,30.75,0,0,1-1.7,10.5,22.48,22.48,0,0,1-4.85,8,21,21,0,0,1-7.6,5A26.85,26.85,0,0,1,582.87,125.59Zm0-7.8a13,13,0,0,0,7.2-2,13.21,13.21,0,0,0,4.85-5.9,23.36,23.36,0,0,0,1.75-9.6q0-8.6-3.8-13a12.58,12.58,0,0,0-10-4.4,13.43,13.43,0,0,0-7.3,2,12.91,12.91,0,0,0-4.85,5.85,23.36,23.36,0,0,0-1.75,9.6q0,8.5,3.8,13A12.55,12.55,0,0,0,582.87,117.79Z"/><path class="cls-6" d="M624.57,124.69a4.86,4.86,0,0,1-5.3-5.3V59.09a5.36,5.36,0,0,1,1.35-4,6.16,6.16,0,0,1,7.7,0,5.36,5.36,0,0,1,1.35,4v56.7h31a4.7,4.7,0,0,1,3.4,1.15,4.29,4.29,0,0,1,1.2,3.25,4.46,4.46,0,0,1-1.2,3.3,4.59,4.59,0,0,1-3.4,1.2Z"/><path class="cls-6" d="M678.37,65a6.67,6.67,0,0,1-4.65-1.5,5.39,5.39,0,0,1-1.65-4.2A5.36,5.36,0,0,1,673.72,55a8.18,8.18,0,0,1,9.3,0,5.36,5.36,0,0,1,1.65,4.25,5.39,5.39,0,0,1-1.65,4.2A6.67,6.67,0,0,1,678.37,65Zm0,60.3a4.69,4.69,0,0,1-3.7-1.45,5.85,5.85,0,0,1-1.3-4v-39a5.65,5.65,0,0,1,1.3-4,4.8,4.8,0,0,1,3.7-1.4,5,5,0,0,1,3.75,1.4,5.53,5.53,0,0,1,1.35,4v39a5.9,5.9,0,0,1-1.3,4A4.84,4.84,0,0,1,678.37,125.29Z"/><path class="cls-6" d="M714.77,125.59a43.39,43.39,0,0,1-9-1,27.1,27.1,0,0,1-8.55-3.4,5,5,0,0,1-1.8-2,4,4,0,0,1-.35-2.25,3.67,3.67,0,0,1,.9-2,3.14,3.14,0,0,1,1.9-1,3.77,3.77,0,0,1,2.45.5,28.89,28.89,0,0,0,7.5,3,30.6,30.6,0,0,0,7.1.85q5.29,0,8-1.9a5.94,5.94,0,0,0,2.7-5.1,4.92,4.92,0,0,0-1.8-4.05,13.12,13.12,0,0,0-5.4-2.25l-9.5-1.9q-6.2-1.31-9.4-4.6a11.54,11.54,0,0,1-3.2-8.4,13.11,13.11,0,0,1,2.5-8,15.88,15.88,0,0,1,7-5.25A27.26,27.26,0,0,1,716.17,75a30.59,30.59,0,0,1,8.3,1.1,25.07,25.07,0,0,1,7.2,3.3,3.41,3.41,0,0,1,1.7,1.85,4.15,4.15,0,0,1,.15,2.25,4.24,4.24,0,0,1-1,2,3.18,3.18,0,0,1-2,1,4.41,4.41,0,0,1-2.55-.55,21.61,21.61,0,0,0-6-2.7,22.45,22.45,0,0,0-5.85-.8c-3.54,0-6.18.65-7.95,2a6.18,6.18,0,0,0-2.65,5.25,5.54,5.54,0,0,0,1.6,4.1,9.72,9.72,0,0,0,5,2.3l9.5,1.9q6.5,1.31,9.85,4.4a10.91,10.91,0,0,1,3.35,8.4,12.79,12.79,0,0,1-5.5,10.9Q723.87,125.6,714.77,125.59Z"/><path class="cls-6" d="M766.37,125.59a22,22,0,0,1-10.1-2.1,13.38,13.38,0,0,1-6.1-6.2,22.57,22.57,0,0,1-2-10V83.69h-6a4.29,4.29,0,0,1-3.1-1,4.31,4.31,0,0,1,0-5.75,4.41,4.41,0,0,1,3.1-1h6V65.59a5,5,0,0,1,1.35-3.8,5.17,5.17,0,0,1,3.75-1.3,5,5,0,0,1,3.7,1.3,5.18,5.18,0,0,1,1.3,3.8v10.3H770a4.45,4.45,0,0,1,3.1,1,4.31,4.31,0,0,1,0,5.75,4.33,4.33,0,0,1-3.1,1h-11.7v22.8q0,5.3,2.25,8t7.35,2.7a12.79,12.79,0,0,0,3.15-.35,17.71,17.71,0,0,1,2.25-.45,2.36,2.36,0,0,1,1.8.75,4.31,4.31,0,0,1,.7,2.85,7.24,7.24,0,0,1-.55,2.8,2.87,2.87,0,0,1-2,1.7,24.76,24.76,0,0,1-3.25.75A22.31,22.31,0,0,1,766.37,125.59Z"/><path class="cls-7" d="M146.87,123.69a5.06,5.06,0,0,1-5.59-5.6V58.79a5.06,5.06,0,0,1,5.59-5.6h19.3q17.42,0,26.86,9.05t9.45,26.15a44,44,0,0,1-2.41,15.1,28.51,28.51,0,0,1-7,11.05,31.09,31.09,0,0,1-11.36,6.8,46.64,46.64,0,0,1-15.5,2.35Zm4.8-8.7h13.9A35.68,35.68,0,0,0,177,113.34a20.7,20.7,0,0,0,8.14-5,20.17,20.17,0,0,0,4.9-8.3,38.35,38.35,0,0,0,1.6-11.7q0-13.31-6.55-19.9t-19.55-6.6h-13.9Z"/><path class="cls-7" d="M230.87,124.59a20.43,20.43,0,0,1-9.15-2,16,16,0,0,1-6.35-5.4,13.45,13.45,0,0,1-2.3-7.7q0-5.4,2.75-8.55t9.1-4.5a86.18,86.18,0,0,1,17.15-1.35h4.7v6.2h-4.6a72.38,72.38,0,0,0-11.4.7q-4.2.7-6,2.35a6,6,0,0,0-1.75,4.55,7.92,7.92,0,0,0,2.6,6.15,10.36,10.36,0,0,0,7.2,2.35,12,12,0,0,0,6.5-1.75,12.71,12.71,0,0,0,4.45-4.75,14.08,14.08,0,0,0,1.65-6.9V92.49q0-5.7-2.4-8.2t-7.9-2.5a29.63,29.63,0,0,0-6.65.8,30.86,30.86,0,0,0-7.15,2.7,4.42,4.42,0,0,1-2.9.5,3.14,3.14,0,0,1-1.9-1.35,4.52,4.52,0,0,1-.75-2.3,4.75,4.75,0,0,1,.6-2.45,4.07,4.07,0,0,1,2.25-1.8,38.77,38.77,0,0,1,8.7-3,39.67,39.67,0,0,1,8.1-.9,25.41,25.41,0,0,1,11.05,2.1,13.5,13.5,0,0,1,6.45,6.4,25.37,25.37,0,0,1,2.1,11.1v25.7a5.45,5.45,0,0,1-1.2,3.75,4.43,4.43,0,0,1-3.5,1.35,4.65,4.65,0,0,1-3.5-1.35,5.21,5.21,0,0,1-1.3-3.75v-6.5h.9a14.79,14.79,0,0,1-2.95,6.35,13.87,13.87,0,0,1-5.35,4A18.07,18.07,0,0,1,230.87,124.59Z"/><path class="cls-7" d="M274,64a6.67,6.67,0,0,1-4.65-1.5,5.39,5.39,0,0,1-1.65-4.2A5.36,5.36,0,0,1,269.32,54a8.18,8.18,0,0,1,9.3,0,5.36,5.36,0,0,1,1.65,4.25,5.39,5.39,0,0,1-1.65,4.2A6.67,6.67,0,0,1,274,64Zm0,60.3a4.71,4.71,0,0,1-3.7-1.45,5.9,5.9,0,0,1-1.3-4v-39a5.7,5.7,0,0,1,1.3-4,4.82,4.82,0,0,1,3.7-1.4,5,5,0,0,1,3.75,1.4,5.53,5.53,0,0,1,1.35,4v39a5.85,5.85,0,0,1-1.3,4A4.81,4.81,0,0,1,274,124.29Z"/><path class="cls-7" d="M309,124.59q-7.8,0-11.75-4.55t-4-13.15V57.59a5.18,5.18,0,0,1,1.3-3.8,5,5,0,0,1,3.7-1.3,5.17,5.17,0,0,1,3.75,1.3,5,5,0,0,1,1.35,3.8v48.7c0,3.33.69,5.82,2.05,7.45a7.33,7.33,0,0,0,5.95,2.45c.6,0,1.14,0,1.6,0s.94-.08,1.4-.15a1.7,1.7,0,0,1,1.7.65,6.1,6.1,0,0,1,.5,3,5.17,5.17,0,0,1-.9,3.25,4.29,4.29,0,0,1-2.9,1.45c-.6.07-1.23.11-1.9.15S309.57,124.59,309,124.59Z"/><path class="cls-7" d="M334.17,142.39a4.5,4.5,0,0,1-2.95-.95,3.58,3.58,0,0,1-1.3-2.5,7.39,7.39,0,0,1,.55-3.35l6.8-15.3v4.3l-18.7-43.5a7.06,7.06,0,0,1-.5-3.4,3.62,3.62,0,0,1,1.5-2.55,5.85,5.85,0,0,1,3.5-1,4.59,4.59,0,0,1,3,.9,7.68,7.68,0,0,1,2,3.1l15.1,37.3h-2.8l15.3-37.3a6.84,6.84,0,0,1,2.1-3.15,5.6,5.6,0,0,1,3.3-.85,3.88,3.88,0,0,1,4.15,3.45,5.81,5.81,0,0,1-.55,3.35l-25,57.5a6.69,6.69,0,0,1-2.25,3.1A6,6,0,0,1,334.17,142.39Z"/><path class="cls-7" d="M398.17,124.39a5.12,5.12,0,0,1-3.85-1.4,5.38,5.38,0,0,1-1.35-3.9V61.89h-21.2a4.56,4.56,0,0,1-3.3-1.15,4.29,4.29,0,0,1-1.2-3.25,4.12,4.12,0,0,1,1.2-3.2,4.71,4.71,0,0,1,3.3-1.1h52.7a4.86,4.86,0,0,1,3.4,1.1,4.12,4.12,0,0,1,1.2,3.2,4.29,4.29,0,0,1-1.2,3.25,4.7,4.7,0,0,1-3.4,1.15h-21.2v57.2A5.61,5.61,0,0,1,402,123,4.9,4.9,0,0,1,398.17,124.39Z"/><path class="cls-7" d="M449.27,124.59a25,25,0,0,1-12.75-3.1,21.55,21.55,0,0,1-8.35-8.8,28.39,28.39,0,0,1-3-13.4,30.27,30.27,0,0,1,1.7-10.5,23.23,23.23,0,0,1,4.85-8,20.79,20.79,0,0,1,7.6-5.1A27,27,0,0,1,449.27,74a24.74,24.74,0,0,1,12.65,3.1,21.55,21.55,0,0,1,8.35,8.75,28.32,28.32,0,0,1,3,13.45,30.51,30.51,0,0,1-1.7,10.5,22.48,22.48,0,0,1-4.85,8,21,21,0,0,1-7.6,5A26.81,26.81,0,0,1,449.27,124.59Zm0-7.8a13,13,0,0,0,7.2-2,13.15,13.15,0,0,0,4.85-5.9,23.36,23.36,0,0,0,1.75-9.6q0-8.6-3.8-13a12.57,12.57,0,0,0-10-4.4,13.43,13.43,0,0,0-7.3,2,13,13,0,0,0-4.85,5.85,23.53,23.53,0,0,0-1.75,9.6q0,8.5,3.8,13A12.57,12.57,0,0,0,449.27,116.79Z"/><path class="cls-7" d="M491.27,123.69a5.06,5.06,0,0,1-5.6-5.6V58.79a5.06,5.06,0,0,1,5.6-5.6h19.3q17.4,0,26.85,9.05t9.45,26.15a44,44,0,0,1-2.4,15.1,28.53,28.53,0,0,1-7.05,11.05,31,31,0,0,1-11.35,6.8,46.68,46.68,0,0,1-15.5,2.35Zm4.8-8.7H510a35.61,35.61,0,0,0,11.45-1.65,20.81,20.81,0,0,0,8.15-5,20.28,20.28,0,0,0,4.9-8.3,38.35,38.35,0,0,0,1.6-11.7q0-13.31-6.55-19.9T510,61.89h-13.9Z"/><path class="cls-7" d="M580.87,124.59a25,25,0,0,1-12.75-3.1,21.49,21.49,0,0,1-8.35-8.8,28.39,28.39,0,0,1-3-13.4,30.27,30.27,0,0,1,1.7-10.5,23.07,23.07,0,0,1,4.85-8,20.71,20.71,0,0,1,7.6-5.1,26.92,26.92,0,0,1,10-1.75,24.76,24.76,0,0,1,12.65,3.1,21.55,21.55,0,0,1,8.35,8.75,28.32,28.32,0,0,1,3,13.45,30.75,30.75,0,0,1-1.7,10.5,22.48,22.48,0,0,1-4.85,8,21,21,0,0,1-7.6,5A26.85,26.85,0,0,1,580.87,124.59Zm0-7.8a13,13,0,0,0,7.2-2,13.21,13.21,0,0,0,4.85-5.9,23.36,23.36,0,0,0,1.75-9.6q0-8.6-3.8-13a12.58,12.58,0,0,0-10-4.4,13.43,13.43,0,0,0-7.3,2,12.91,12.91,0,0,0-4.85,5.85,23.36,23.36,0,0,0-1.75,9.6q0,8.5,3.8,13A12.55,12.55,0,0,0,580.87,116.79Z"/><path class="cls-7" d="M622.57,123.69a4.86,4.86,0,0,1-5.3-5.3V58.09a5.36,5.36,0,0,1,1.35-4,6.16,6.16,0,0,1,7.7,0,5.36,5.36,0,0,1,1.35,4v56.7h31a4.7,4.7,0,0,1,3.4,1.15,4.29,4.29,0,0,1,1.2,3.25,4.46,4.46,0,0,1-1.2,3.3,4.59,4.59,0,0,1-3.4,1.2Z"/><path class="cls-7" d="M676.37,64a6.67,6.67,0,0,1-4.65-1.5,5.39,5.39,0,0,1-1.65-4.2A5.36,5.36,0,0,1,671.72,54a8.18,8.18,0,0,1,9.3,0,5.36,5.36,0,0,1,1.65,4.25,5.39,5.39,0,0,1-1.65,4.2A6.67,6.67,0,0,1,676.37,64Zm0,60.3a4.69,4.69,0,0,1-3.7-1.45,5.85,5.85,0,0,1-1.3-4v-39a5.65,5.65,0,0,1,1.3-4,4.8,4.8,0,0,1,3.7-1.4,5,5,0,0,1,3.75,1.4,5.53,5.53,0,0,1,1.35,4v39a5.9,5.9,0,0,1-1.3,4A4.84,4.84,0,0,1,676.37,124.29Z"/><path class="cls-7" d="M712.77,124.59a43.39,43.39,0,0,1-9-1,27.1,27.1,0,0,1-8.55-3.4,5,5,0,0,1-1.8-2,4,4,0,0,1-.35-2.25,3.67,3.67,0,0,1,.9-2,3.14,3.14,0,0,1,1.9-1,3.77,3.77,0,0,1,2.45.5,28.89,28.89,0,0,0,7.5,3,30.6,30.6,0,0,0,7.1.85q5.29,0,8-1.9a5.94,5.94,0,0,0,2.7-5.1,4.92,4.92,0,0,0-1.8-4.05,13.12,13.12,0,0,0-5.4-2.25l-9.5-1.9q-6.2-1.31-9.4-4.6a11.54,11.54,0,0,1-3.2-8.4,13.11,13.11,0,0,1,2.5-8,15.88,15.88,0,0,1,7-5.25A27.26,27.26,0,0,1,714.17,74a30.59,30.59,0,0,1,8.3,1.1,25.07,25.07,0,0,1,7.2,3.3,3.41,3.41,0,0,1,1.7,1.85,4.15,4.15,0,0,1,.15,2.25,4.24,4.24,0,0,1-1,2,3.18,3.18,0,0,1-2,1,4.41,4.41,0,0,1-2.55-.55,21.61,21.61,0,0,0-6-2.7,22.45,22.45,0,0,0-5.85-.8c-3.54,0-6.18.65-7.95,2a6.18,6.18,0,0,0-2.65,5.25,5.54,5.54,0,0,0,1.6,4.1,9.72,9.72,0,0,0,5,2.3l9.5,1.9q6.5,1.31,9.85,4.4a10.91,10.91,0,0,1,3.35,8.4,12.79,12.79,0,0,1-5.5,10.9Q721.87,124.6,712.77,124.59Z"/><path class="cls-7" d="M764.37,124.59a22,22,0,0,1-10.1-2.1,13.38,13.38,0,0,1-6.1-6.2,22.57,22.57,0,0,1-2-10V82.69h-6a4.29,4.29,0,0,1-3.1-1,4.31,4.31,0,0,1,0-5.75,4.41,4.41,0,0,1,3.1-1h6V64.59a5,5,0,0,1,1.35-3.8,5.17,5.17,0,0,1,3.75-1.3,5,5,0,0,1,3.7,1.3,5.18,5.18,0,0,1,1.3,3.8v10.3H768a4.45,4.45,0,0,1,3.1,1,4.31,4.31,0,0,1,0,5.75,4.33,4.33,0,0,1-3.1,1h-11.7v22.8q0,5.3,2.25,8t7.35,2.7a12.79,12.79,0,0,0,3.15-.35,17.71,17.71,0,0,1,2.25-.45,2.36,2.36,0,0,1,1.8.75,4.31,4.31,0,0,1,.7,2.85,7.24,7.24,0,0,1-.55,2.8,2.87,2.87,0,0,1-2,1.7,24.76,24.76,0,0,1-3.25.75A22.31,22.31,0,0,1,764.37,124.59Z"/></svg>